<svg width="380" height="380" viewBox="0 0 380 380" fill="none" xmlns="http://www.w3.org/2000/svg">
<g clip-path="url(#clip0)">
<path d="M260.29 151.445C260.29 168.895 260.219 186.35 260.361 203.8C260.361 206.629 259.49 207.174 256.581 207.168C219.226 207.067 181.871 207.115 144.516 207.061C143.09 207.061 140.445 207.828 140.465 206.071C140.465 203.812 143.187 204.909 144.665 204.903C181.262 204.843 217.865 204.857 254.471 204.945C257.574 204.945 257.89 203.95 257.89 201.552C257.839 167.348 257.839 133.143 257.89 98.9352C257.89 97.7364 257.168 95.7163 258.961 95.7163C261.129 95.7163 260.219 97.8743 260.219 99.0851C260.31 116.541 260.29 133.99 260.29 151.445Z" fill="white"/>
<path d="M263.948 76.3727C263.994 77.5715 262.916 78.0691 262.181 78.7404C251.426 88.6191 240.432 98.2879 229.923 108.4C216.897 120.946 203.09 132.767 190.11 145.337C177.329 157.697 163.729 169.278 151 181.663C141.968 190.45 132.484 198.8 123.31 207.438C122.977 207.829 122.589 208.176 122.155 208.469C121 209.069 120.219 211.418 118.677 209.956C117.387 208.697 119.516 207.78 120.381 206.959C128.194 199.706 136.277 192.698 143.897 185.271C156.542 172.959 170.071 161.474 182.742 149.198C195.413 136.921 208.806 125.568 221.374 113.328C234.542 100.512 248.523 88.4692 261.794 75.7613C262.258 75.3177 262.516 74.7482 263.284 75.0779C263.865 75.3417 263.877 75.8812 263.948 76.3727Z" fill="white"/>
<path d="M121.968 134.248C121.968 116.798 121.968 99.3489 121.923 81.8995C121.923 79.7535 122.206 78.8244 124.987 78.8304C162.761 78.9383 200.535 78.9083 238.316 78.9563C239.561 78.9563 241.813 78.213 241.852 79.8674C241.91 81.9235 239.548 81.0123 238.29 81.0123C201.477 81.0723 164.667 81.0723 127.858 81.0123C125.026 81.0123 124.29 81.6118 124.297 84.2732C124.409 118.573 124.437 152.872 124.381 187.171C124.381 187.669 124.381 188.173 124.381 188.664C124.31 189.473 124.2 190.396 123.032 190.312C122.065 190.247 122.019 189.401 122.006 188.7C122.006 186.902 122.006 185.103 122.006 183.305L121.968 134.248Z" fill="white"/>
<path d="M176.245 120.365C176.245 125.454 175.348 126.431 169.865 127.276C157.703 129.141 149.387 120.047 153.503 109.371C156.361 101.938 167.516 98.8393 174.49 103.545C175.29 104.084 176.116 104.534 175.258 105.655C174.555 106.584 173.806 106.704 172.806 106.152C171.362 105.284 169.725 104.731 168.018 104.533C166.311 104.336 164.578 104.5 162.948 105.013C157.258 106.812 154.652 113.435 157.303 119.274C159.503 124.123 166.284 126.293 171.497 123.812C173.884 122.673 172.587 120.653 172.735 119.016C172.884 117.38 171.335 117.943 170.355 117.817C169.265 117.697 167.774 118.075 167.871 116.313C167.948 114.664 169.374 115.336 170.297 115.162C170.404 115.15 170.512 115.15 170.619 115.162C177.387 115.288 176.097 114.466 176.245 120.365Z" fill="white"/>
<path d="M225.652 161.624C225.652 165.31 225.581 168.997 225.652 172.677C225.697 174.218 225.206 174.787 223.49 174.799C221.774 174.811 221.103 174.296 221.129 172.569C221.232 165.496 221.129 158.423 221.226 151.349C221.258 149.305 220.684 148.448 218.374 148.682C216.684 148.85 214.948 148.682 213.213 148.724C211.652 148.784 210.632 148.724 210.632 146.746C210.632 144.894 211.645 144.912 213.039 144.918C220.006 144.918 226.974 144.96 233.942 144.918C235.606 144.918 236.123 145.367 236.11 146.962C236.097 148.556 235.4 148.868 233.994 148.76C233.886 148.751 233.778 148.751 233.671 148.76C231.039 148.976 227.432 147.639 226.032 149.359C224.742 150.942 225.658 154.155 225.632 156.606C225.632 158.237 225.652 159.927 225.652 161.624Z" fill="white"/>
<path d="M157.895 237.332C157.446 237.971 156.741 238.469 155.779 238.827C154.825 239.184 153.755 239.363 152.569 239.363C151.369 239.363 150.302 239.076 149.369 238.5C148.436 237.925 147.713 237.111 147.201 236.058C146.689 235.006 146.429 233.799 146.422 232.438V230.501C146.422 228.375 146.959 226.697 148.032 225.469C149.106 224.234 150.548 223.617 152.358 223.617C153.937 223.617 155.207 224.02 156.169 224.827C157.13 225.627 157.702 226.733 157.884 228.143H156.59C156.4 227.02 155.941 226.171 155.211 225.596C154.488 225.013 153.541 224.722 152.369 224.722C150.937 224.722 149.804 225.231 148.969 226.248C148.134 227.266 147.717 228.701 147.717 230.553V232.364C147.717 233.529 147.913 234.56 148.306 235.458C148.706 236.35 149.274 237.041 150.011 237.532C150.755 238.023 151.608 238.269 152.569 238.269C153.685 238.269 154.642 238.093 155.442 237.742C155.962 237.511 156.348 237.241 156.6 236.932V232.974H152.485V231.88H157.895V237.332ZM172.536 232.774H168.084V239.153H166.779V223.827H171.757C173.392 223.827 174.669 224.224 175.589 225.017C176.508 225.81 176.967 226.919 176.967 228.343C176.967 229.325 176.68 230.192 176.104 230.943C175.529 231.694 174.757 232.213 173.789 232.501L177.62 239.016V239.153H176.241L172.536 232.774ZM168.084 231.669H172.052C173.14 231.669 174.013 231.36 174.673 230.743C175.332 230.125 175.662 229.325 175.662 228.343C175.662 227.262 175.318 226.424 174.631 225.827C173.943 225.231 172.978 224.933 171.736 224.933H168.084V231.669ZM196.293 223.827V234.29C196.286 235.322 196.057 236.22 195.608 236.985C195.159 237.749 194.524 238.339 193.703 238.753C192.889 239.16 191.952 239.363 190.893 239.363C189.279 239.363 187.984 238.925 187.009 238.048C186.041 237.164 185.539 235.943 185.504 234.385V223.827H186.788V234.195C186.788 235.486 187.156 236.49 187.893 237.206C188.63 237.914 189.63 238.269 190.893 238.269C192.156 238.269 193.152 237.911 193.882 237.195C194.619 236.479 194.987 235.483 194.987 234.206V223.827H196.293ZM206.439 232.911V239.153H205.145V223.827H210.365C211.958 223.827 213.214 224.234 214.134 225.048C215.06 225.862 215.523 226.982 215.523 228.406C215.523 229.845 215.077 230.957 214.186 231.743C213.302 232.522 212.018 232.911 210.334 232.911H206.439ZM206.439 231.816H210.365C211.621 231.816 212.579 231.518 213.239 230.922C213.899 230.325 214.228 229.494 214.228 228.427C214.228 227.368 213.899 226.526 213.239 225.901C212.586 225.27 211.657 224.947 210.45 224.933H206.439V231.816ZM234.996 232.322C234.996 233.732 234.75 234.971 234.259 236.037C233.775 237.104 233.08 237.925 232.175 238.5C231.269 239.076 230.224 239.363 229.038 239.363C227.249 239.363 225.803 238.725 224.701 237.448C223.6 236.164 223.049 234.434 223.049 232.259V230.68C223.049 229.283 223.294 228.048 223.786 226.975C224.284 225.894 224.986 225.066 225.891 224.491C226.796 223.908 227.838 223.617 229.017 223.617C230.196 223.617 231.234 223.901 232.133 224.47C233.038 225.038 233.736 225.841 234.227 226.88C234.718 227.918 234.974 229.122 234.996 230.49V232.322ZM233.701 230.659C233.701 228.813 233.283 227.368 232.448 226.322C231.613 225.277 230.469 224.754 229.017 224.754C227.592 224.754 226.456 225.28 225.607 226.333C224.765 227.378 224.344 228.841 224.344 230.722V232.322C224.344 234.139 224.765 235.581 225.607 236.648C226.449 237.707 227.592 238.237 229.038 238.237C230.505 238.237 231.648 237.714 232.469 236.669C233.29 235.616 233.701 234.153 233.701 232.28V230.659Z" fill="white"/>
<path d="M51.6557 257.008H46.877V270.186H44.2351V257.008H39.4985V254.86H51.6557V257.008ZM64.0444 264.281H61.0762V270.186H58.4132V254.86H63.8024C65.5707 254.86 66.9355 255.257 67.8968 256.05C68.8582 256.843 69.3389 257.99 69.3389 259.492C69.3389 260.516 69.0898 261.376 68.5915 262.07C68.1003 262.758 67.4127 263.288 66.5285 263.66L69.9704 270.049V270.186H67.1179L64.0444 264.281ZM61.0762 262.144H63.8129C64.7111 262.144 65.4128 261.92 65.918 261.471C66.4232 261.014 66.6759 260.393 66.6759 259.607C66.6759 258.786 66.4408 258.151 65.9706 257.702C65.5075 257.253 64.8128 257.022 63.8866 257.008H61.0762V262.144ZM85.8116 266.618H79.8751L78.633 270.186H75.8648L81.6539 254.86H84.0433L89.8429 270.186H87.0641L85.8116 266.618ZM80.6224 264.47H85.0642L82.8433 258.113L80.6224 264.47ZM109.115 270.186H106.452L99.6213 259.313V270.186H96.9583V254.86H99.6213L106.473 265.776V254.86H109.115V270.186ZM125.641 266.239C125.641 265.565 125.402 265.046 124.925 264.681C124.455 264.316 123.602 263.948 122.367 263.576C121.132 263.204 120.15 262.79 119.42 262.334C118.024 261.456 117.325 260.313 117.325 258.902C117.325 257.667 117.827 256.65 118.831 255.85C119.841 255.05 121.15 254.65 122.757 254.65C123.823 254.65 124.774 254.846 125.609 255.239C126.444 255.632 127.1 256.194 127.578 256.923C128.055 257.646 128.293 258.45 128.293 259.334H125.641C125.641 258.534 125.388 257.909 124.883 257.46C124.385 257.004 123.669 256.776 122.736 256.776C121.866 256.776 121.188 256.962 120.704 257.334C120.227 257.706 119.988 258.225 119.988 258.892C119.988 259.453 120.248 259.923 120.767 260.302C121.287 260.674 122.143 261.039 123.336 261.397C124.529 261.748 125.486 262.151 126.209 262.607C126.932 263.056 127.462 263.576 127.799 264.165C128.135 264.748 128.304 265.432 128.304 266.218C128.304 267.495 127.813 268.512 126.83 269.27C125.855 270.021 124.529 270.396 122.851 270.396C121.743 270.396 120.722 270.193 119.788 269.786C118.862 269.372 118.139 268.803 117.62 268.081C117.108 267.358 116.852 266.516 116.852 265.554H119.515C119.515 266.425 119.803 267.098 120.378 267.575C120.953 268.053 121.778 268.291 122.851 268.291C123.778 268.291 124.472 268.105 124.936 267.733C125.406 267.354 125.641 266.856 125.641 266.239ZM144.84 263.691H138.672V270.186H136.009V254.86H145.745V257.008H138.672V261.565H144.84V263.691ZM165.459 262.923C165.459 264.425 165.2 265.744 164.681 266.881C164.161 268.01 163.417 268.881 162.449 269.491C161.488 270.095 160.379 270.396 159.123 270.396C157.881 270.396 156.772 270.095 155.797 269.491C154.829 268.881 154.078 268.014 153.544 266.891C153.018 265.769 152.751 264.474 152.744 263.007V262.144C152.744 260.65 153.008 259.33 153.534 258.187C154.067 257.043 154.814 256.169 155.776 255.566C156.744 254.955 157.853 254.65 159.102 254.65C160.351 254.65 161.456 254.952 162.418 255.555C163.386 256.152 164.133 257.015 164.66 258.144C165.186 259.267 165.452 260.576 165.459 262.07V262.923ZM162.796 262.123C162.796 260.425 162.474 259.123 161.828 258.218C161.19 257.313 160.281 256.86 159.102 256.86C157.951 256.86 157.049 257.313 156.397 258.218C155.751 259.116 155.421 260.39 155.407 262.039V262.923C155.407 264.607 155.734 265.909 156.386 266.828C157.046 267.747 157.958 268.207 159.123 268.207C160.302 268.207 161.207 267.758 161.839 266.86C162.477 265.961 162.796 264.649 162.796 262.923V262.123ZM179.111 264.281H176.143V270.186H173.48V254.86H178.869C180.638 254.86 182.002 255.257 182.964 256.05C183.925 256.843 184.406 257.99 184.406 259.492C184.406 260.516 184.157 261.376 183.658 262.07C183.167 262.758 182.48 263.288 181.595 263.66L185.037 270.049V270.186H182.185L179.111 264.281ZM176.143 262.144H178.88C179.778 262.144 180.48 261.92 180.985 261.471C181.49 261.014 181.743 260.393 181.743 259.607C181.743 258.786 181.508 258.151 181.037 257.702C180.574 257.253 179.88 257.022 178.953 257.008H176.143V262.144ZM195.752 254.86L200.173 266.607L204.583 254.86H208.025V270.186H205.373V265.133L205.636 258.376L201.11 270.186H199.205L194.689 258.386L194.952 265.133V270.186H192.3V254.86H195.752ZM225.13 266.618H219.193L217.951 270.186H215.183L220.972 254.86H223.361L229.161 270.186H226.382L225.13 266.618ZM219.94 264.47H224.382L222.161 258.113L219.94 264.47ZM244.286 266.239C244.286 265.565 244.048 265.046 243.571 264.681C243.1 264.316 242.248 263.948 241.013 263.576C239.778 263.204 238.795 262.79 238.066 262.334C236.669 261.456 235.971 260.313 235.971 258.902C235.971 257.667 236.473 256.65 237.476 255.85C238.487 255.05 239.795 254.65 241.402 254.65C242.469 254.65 243.42 254.846 244.255 255.239C245.09 255.632 245.746 256.194 246.223 256.923C246.7 257.646 246.939 258.45 246.939 259.334H244.286C244.286 258.534 244.034 257.909 243.529 257.46C243.03 257.004 242.315 256.776 241.381 256.776C240.511 256.776 239.834 256.962 239.35 257.334C238.873 257.706 238.634 258.225 238.634 258.892C238.634 259.453 238.894 259.923 239.413 260.302C239.932 260.674 240.788 261.039 241.981 261.397C243.174 261.748 244.132 262.151 244.855 262.607C245.578 263.056 246.107 263.576 246.444 264.165C246.781 264.748 246.949 265.432 246.949 266.218C246.949 267.495 246.458 268.512 245.476 269.27C244.5 270.021 243.174 270.396 241.497 270.396C240.388 270.396 239.367 270.193 238.434 269.786C237.508 269.372 236.785 268.803 236.266 268.081C235.754 267.358 235.497 266.516 235.497 265.554H238.16C238.16 266.425 238.448 267.098 239.024 267.575C239.599 268.053 240.423 268.291 241.497 268.291C242.423 268.291 243.118 268.105 243.581 267.733C244.051 267.354 244.286 266.856 244.286 266.239ZM265.096 257.008H260.317V270.186H257.675V257.008H252.938V254.86H265.096V257.008ZM277.484 264.281H274.516V270.186H271.853V254.86H277.242C279.011 254.86 280.375 255.257 281.337 256.05C282.298 256.843 282.779 257.99 282.779 259.492C282.779 260.516 282.53 261.376 282.031 262.07C281.54 262.758 280.853 263.288 279.968 263.66L283.41 270.049V270.186H280.558L277.484 264.281ZM274.516 262.144H277.253C278.151 262.144 278.853 261.92 279.358 261.471C279.863 261.014 280.116 260.393 280.116 259.607C280.116 258.786 279.881 258.151 279.411 257.702C278.947 257.253 278.253 257.022 277.326 257.008H274.516V262.144ZM299.63 263.344H293.336V268.06H300.694V270.186H290.673V254.86H300.62V257.008H293.336V261.239H299.63V263.344ZM319.924 265.197C319.77 266.832 319.166 268.109 318.114 269.028C317.061 269.94 315.661 270.396 313.914 270.396C312.693 270.396 311.616 270.109 310.682 269.533C309.756 268.951 309.04 268.126 308.535 267.06C308.03 265.993 307.767 264.755 307.746 263.344V261.913C307.746 260.467 308.002 259.193 308.514 258.092C309.026 256.99 309.76 256.141 310.714 255.545C311.675 254.948 312.784 254.65 314.04 254.65C315.731 254.65 317.093 255.109 318.124 256.029C319.156 256.948 319.756 258.246 319.924 259.923H317.271C317.145 258.822 316.822 258.029 316.303 257.544C315.791 257.053 315.037 256.808 314.04 256.808C312.882 256.808 311.991 257.232 311.367 258.081C310.749 258.923 310.433 260.162 310.419 261.797V263.155C310.419 264.811 310.714 266.074 311.303 266.944C311.9 267.814 312.77 268.249 313.914 268.249C314.959 268.249 315.745 268.014 316.272 267.544C316.798 267.074 317.131 266.291 317.271 265.197H319.924ZM339.849 270.186H337.197V263.376H330.344V270.186H327.681V254.86H330.344V261.239H337.197V254.86H339.849V270.186Z" fill="white"/>
</g>
<defs>
<clipPath id="clip0">
<rect width="305" height="200" fill="white" transform="translate(36 75)"/>
</clipPath>
</defs>
</svg>
